<svg xmlns="http://www.w3.org/2000/svg" x="0px" y="0px" width="100" height="100" viewBox="0 0 32 32">
<polygon fill="#a8c82b" points="5,9 5,7 7,7 7,5 25,5 25,7 27,7 27,9 27,17 25,19 23,21 21,23 21,25 19,25 19,27 13,27 13,25 11,25 11,23 9,21 5,17"></polygon><rect width="14" height="2" x="9" y="3" fill="#a8c82b" transform="rotate(-180 16 4)"></rect><rect width="2" height="8" x="25" y="9" fill="#009540" transform="rotate(-180 26 13)"></rect><rect width="2" height="2" x="25" y="17" fill="#009540" transform="rotate(-180 26 18)"></rect><rect width="2" height="2" x="23" y="19" fill="#009540" transform="rotate(-180 24 20)"></rect><rect width="2" height="2" x="21" y="21" fill="#009540" transform="rotate(-180 22 22)"></rect><rect width="2" height="2" x="19" y="23" fill="#009540" transform="rotate(-180 20 24)"></rect><rect width="2" height="2" x="25" y="7" fill="#009540" transform="rotate(-180 26 8)"></rect><rect width="2" height="2" x="23" y="5" fill="#009540" transform="rotate(-180 24 6)"></rect><rect width="4" height="2" x="19" y="3" fill="#009540" transform="rotate(-180 21 4)"></rect><rect width="2" height="8" x="5" y="9" fill="#009540"></rect><rect width="2" height="2" x="5" y="17" fill="#009540"></rect><rect width="2" height="2" x="9" y="21" fill="#009540"></rect><rect width="2" height="2" x="7" y="19" fill="#009540"></rect><rect width="2" height="2" x="11" y="23" fill="#009540"></rect><rect width="6" height="2" x="13" y="25" fill="#009540"></rect><rect width="2" height="2" x="5" y="7" fill="#009540"></rect><rect width="2" height="2" x="7" y="5" fill="#009540"></rect><rect width="11" height="2" x="9" y="3" fill="#009540"></rect><polygon fill="#064678" points="23,9 23,15 21,15 21,17 19,17 19,19 17,19 17,11 19,11 19,9"></polygon><polygon fill="#064678" points="9,9 9,15 11,15 11,17 13,17 13,19 15,19 15,11 13,11 13,9"></polygon>
</svg>
